HIERARCHY
ROOT mixamorig:Hips
{
	OFFSET 0.000000 201.639420 0.000000
	CHANNELS 6 Xposition Yposition Zposition Xrotation Yrotation Zrotation
	JOINT mixamorig:Spine
	{
		OFFSET 0.006200 19.524994 -2.481800
		CHANNELS 3 Xrotation Yrotation Zrotation
		JOINT mixamorig:Spine1
		{
			OFFSET -0.000900 22.835007 -2.825400
			CHANNELS 3 Xrotation Yrotation Zrotation
			JOINT mixamorig:Spine2
			{
				OFFSET -0.020600 26.552490 -3.193300
				CHANNELS 3 Xrotation Yrotation Zrotation
				JOINT mixamorig:Neck
				{
					OFFSET -0.060000 30.701813 1.352200
					CHANNELS 3 Xrotation Yrotation Zrotation
					JOINT mixamorig:Head
					{
						OFFSET -0.087200 22.547607 3.670900
						CHANNELS 3 Xrotation Yrotation Zrotation
						JOINT mixamorig:HeadTop_End
						{
							OFFSET -0.830600 40.355194 7.893500
							CHANNELS 3 Xrotation Yrotation Zrotation
							End Site
							{
								OFFSET 0.000000 30.592346 0.000000
							}
						}
						JOINT mixamorig:RightEye
						{
							OFFSET -6.302100 18.118591 16.197100
							CHANNELS 3 Xrotation Yrotation Zrotation
							End Site
							{
								OFFSET 0.000000 30.592346 0.000000
							}
						}
						JOINT mixamorig:LeftEye
						{
							OFFSET 6.741500 18.382690 16.401899
							CHANNELS 3 Xrotation Yrotation Zrotation
							End Site
							{
								OFFSET 0.000000 30.592346 0.000000
							}
						}
					}
				}
				JOINT mixamorig:LeftShoulder
				{
					OFFSET 11.924900 18.230499 1.425400
					CHANNELS 3 Xrotation Yrotation Zrotation
					JOINT mixamorig:LeftArm
					{
						OFFSET 25.435989 -0.697632 -5.229300
						CHANNELS 3 Xrotation Yrotation Zrotation
						JOINT mixamorig:LeftForeArm
						{
							OFFSET 54.684776 0.000000 0.000000
							CHANNELS 3 Xrotation Yrotation Zrotation
							JOINT mixamorig:LeftHand
							{
								OFFSET 55.098175 0.000000 0.000000
								CHANNELS 3 Xrotation Yrotation Zrotation
								JOINT mixamorig:LeftHandMiddle1
								{
									OFFSET 23.369751 0.000000 0.000000
									CHANNELS 3 Xrotation Yrotation Zrotation
									JOINT mixamorig:LeftHandMiddle2
									{
										OFFSET 6.378677 0.000000 0.000000
										CHANNELS 3 Xrotation Yrotation Zrotation
										JOINT mixamorig:LeftHandMiddle3
										{
											OFFSET 6.148331 0.000000 0.000000
											CHANNELS 3 Xrotation Yrotation Zrotation
											JOINT mixamorig:LeftHandMiddle4
											{
												OFFSET 6.582504 0.000000 0.000000
												CHANNELS 3 Xrotation Yrotation Zrotation
												End Site
												{
													OFFSET -1.168900 6.395691 1.028606
												}
											}
										}
									}
								}
								JOINT mixamorig:LeftHandThumb1
								{
									OFFSET 7.235672 -3.848206 5.434273
									CHANNELS 3 Xrotation Yrotation Zrotation
									JOINT mixamorig:LeftHandThumb2
									{
										OFFSET 6.568451 -3.792297 3.792300
										CHANNELS 3 Xrotation Yrotation Zrotation
										JOINT mixamorig:LeftHandThumb3
										{
											OFFSET 6.063080 -3.500519 3.500518
											CHANNELS 3 Xrotation Yrotation Zrotation
											JOINT mixamorig:LeftHandThumb4
											{
												OFFSET 4.793182 -2.767334 2.767349
												CHANNELS 3 Xrotation Yrotation Zrotation
												End Site
												{
													OFFSET 0.101639 6.054260 1.275483
												}
											}
										}
									}
								}
								JOINT mixamorig:LeftHandIndex1
								{
									OFFSET 23.101074 -0.309540 4.992809
									CHANNELS 3 Xrotation Yrotation Zrotation
									JOINT mixamorig:LeftHandIndex2
									{
										OFFSET 6.226883 0.000000 0.000000
										CHANNELS 3 Xrotation Yrotation Zrotation
										JOINT mixamorig:LeftHandIndex3
										{
											OFFSET 6.094330 0.000000 0.000000
											CHANNELS 3 Xrotation Yrotation Zrotation
											JOINT mixamorig:LeftHandIndex4
											{
												OFFSET 5.482605 0.000000 0.000000
												CHANNELS 3 Xrotation Yrotation Zrotation
												End Site
												{
													OFFSET -1.427902 5.233032 0.797164
												}
											}
										}
									}
								}
								JOINT mixamorig:LeftHandRing1
								{
									OFFSET 22.299240 0.021149 -3.964172
									CHANNELS 3 Xrotation Yrotation Zrotation
									JOINT mixamorig:LeftHandRing2
									{
										OFFSET 6.321869 0.000000 0.000000
										CHANNELS 3 Xrotation Yrotation Zrotation
										JOINT mixamorig:LeftHandRing3
										{
											OFFSET 5.899796 0.000000 0.000000
											CHANNELS 3 Xrotation Yrotation Zrotation
											JOINT mixamorig:LeftHandRing4
											{
												OFFSET 6.517899 0.000000 0.000000
												CHANNELS 3 Xrotation Yrotation Zrotation
												End Site
												{
													OFFSET -1.637299 6.232208 0.980890
												}
											}
										}
									}
								}
								JOINT mixamorig:LeftHandPinky1
								{
									OFFSET 20.463791 -0.302338 -8.562233
									CHANNELS 3 Xrotation Yrotation Zrotation
									JOINT mixamorig:LeftHandPinky2
									{
										OFFSET 6.908646 0.000000 0.000000
										CHANNELS 3 Xrotation Yrotation Zrotation
										JOINT mixamorig:LeftHandPinky3
										{
											OFFSET 4.622849 0.000000 0.000000
											CHANNELS 3 Xrotation Yrotation Zrotation
											JOINT mixamorig:LeftHandPinky4
											{
												OFFSET 5.216080 0.000000 0.000000
												CHANNELS 3 Xrotation Yrotation Zrotation
												End Site
												{
													OFFSET -0.606308 5.116241 0.814926
												}
											}
										}
									}
								}
							}
						}
					}
				}
				JOINT mixamorig:RightShoulder
				{
					OFFSET -12.001300 18.284088 1.348900
					CHANNELS 3 Xrotation Yrotation Zrotation
					JOINT mixamorig:RightArm
					{
						OFFSET -25.308500 -0.751312 -5.164599
						CHANNELS 3 Xrotation Yrotation Zrotation
						JOINT mixamorig:RightForeArm
						{
							OFFSET -54.684429 0.000000 0.000000
							CHANNELS 3 Xrotation Yrotation Zrotation
							JOINT mixamorig:RightHand
							{
								OFFSET -55.150291 0.000000 0.000000
								CHANNELS 3 Xrotation Yrotation Zrotation
								JOINT mixamorig:RightHandMiddle1
								{
									OFFSET -23.317566 0.000000 0.000000
									CHANNELS 3 Xrotation Yrotation Zrotation
									JOINT mixamorig:RightHandMiddle2
									{
										OFFSET -6.378403 0.000000 0.000000
										CHANNELS 3 Xrotation Yrotation Zrotation
										JOINT mixamorig:RightHandMiddle3
										{
											OFFSET -6.148193 0.000000 0.000000
											CHANNELS 3 Xrotation Yrotation Zrotation
											JOINT mixamorig:RightHandMiddle4
											{
												OFFSET -6.583389 0.000000 0.000000
												CHANNELS 3 Xrotation Yrotation Zrotation
												End Site
												{
													OFFSET 1.171692 6.395905 1.029786
												}
											}
										}
									}
								}
								JOINT mixamorig:RightHandThumb1
								{
									OFFSET -7.190521 -3.860474 5.435846
									CHANNELS 3 Xrotation Yrotation Zrotation
									JOINT mixamorig:RightHandThumb2
									{
										OFFSET -6.567429 -3.791718 3.791708
										CHANNELS 3 Xrotation Yrotation Zrotation
										JOINT mixamorig:RightHandThumb3
										{
											OFFSET -6.062469 -3.500153 3.500166
											CHANNELS 3 Xrotation Yrotation Zrotation
											JOINT mixamorig:RightHandThumb4
											{
												OFFSET -4.792618 -2.767029 2.767022
												CHANNELS 3 Xrotation Yrotation Zrotation
												End Site
												{
													OFFSET -0.100327 6.053253 1.276754
												}
											}
										}
									}
								}
								JOINT mixamorig:RightHandIndex1
								{
									OFFSET -23.048981 -0.310791 4.992554
									CHANNELS 3 Xrotation Yrotation Zrotation
									JOINT mixamorig:RightHandIndex2
									{
										OFFSET -6.227539 0.000000 0.000000
										CHANNELS 3 Xrotation Yrotation Zrotation
										JOINT mixamorig:RightHandIndex3
										{
											OFFSET -6.095047 0.000000 0.000000
											CHANNELS 3 Xrotation Yrotation Zrotation
											JOINT mixamorig:RightHandIndex4
											{
												OFFSET -5.484772 0.000000 0.000000
												CHANNELS 3 Xrotation Yrotation Zrotation
												End Site
												{
													OFFSET 1.420593 5.237305 0.797056
												}
											}
										}
									}
								}
								JOINT mixamorig:RightHandRing1
								{
									OFFSET -22.246323 0.020569 -3.963762
									CHANNELS 3 Xrotation Yrotation Zrotation
									JOINT mixamorig:RightHandRing2
									{
										OFFSET -6.322128 0.000000 0.000000
										CHANNELS 3 Xrotation Yrotation Zrotation
										JOINT mixamorig:RightHandRing3
										{
											OFFSET -5.900024 0.000000 0.000000
											CHANNELS 3 Xrotation Yrotation Zrotation
											JOINT mixamorig:RightHandRing4
											{
												OFFSET -6.518356 0.000000 0.000000
												CHANNELS 3 Xrotation Yrotation Zrotation
												End Site
												{
													OFFSET 1.636398 6.232697 0.982186
												}
											}
										}
									}
								}
								JOINT mixamorig:RightHandPinky1
								{
									OFFSET -20.411011 -0.303314 -8.561701
									CHANNELS 3 Xrotation Yrotation Zrotation
									JOINT mixamorig:RightHandPinky2
									{
										OFFSET -6.907349 0.000000 0.000000
										CHANNELS 3 Xrotation Yrotation Zrotation
										JOINT mixamorig:RightHandPinky3
										{
											OFFSET -4.623840 0.000000 0.000000
											CHANNELS 3 Xrotation Yrotation Zrotation
											JOINT mixamorig:RightHandPinky4
											{
												OFFSET -5.218353 0.000000 0.000000
												CHANNELS 3 Xrotation Yrotation Zrotation
												End Site
												{
													OFFSET 0.602097 5.118835 0.816273
												}
											}
										}
									}
								}
							}
						}
					}
				}
			}
		}
	}
	JOINT mixamorig:LeftUpLeg
	{
		OFFSET 18.168400 -13.561905 -0.039000
		CHANNELS 3 Xrotation Yrotation Zrotation
		JOINT mixamorig:LeftLeg
		{
			OFFSET 0.577358 -80.825211 -3.695000
			CHANNELS 3 Xrotation Yrotation Zrotation
			JOINT mixamorig:LeftFoot
			{
				OFFSET -0.577356 -83.370262 -6.520700
				CHANNELS 3 Xrotation Yrotation Zrotation
				JOINT mixamorig:LeftToeBase
				{
					OFFSET 0.750401 -20.798306 25.135401
					CHANNELS 3 Xrotation Yrotation Zrotation
					JOINT mixamorig:LeftToe_End
					{
						OFFSET -0.000500 0.001200 19.917799
						CHANNELS 3 Xrotation Yrotation Zrotation
						End Site
						{
							OFFSET 0.000000 19.917805 0.000000
						}
					}
				}
			}
		}
	}
	JOINT mixamorig:RightUpLeg
	{
		OFFSET -18.162500 -13.585098 -0.041000
		CHANNELS 3 Xrotation Yrotation Zrotation
		JOINT mixamorig:RightLeg
		{
			OFFSET -0.595024 -80.945297 -3.631900
			CHANNELS 3 Xrotation Yrotation Zrotation
			JOINT mixamorig:RightFoot
			{
				OFFSET 0.595024 -83.218193 -6.561200
				CHANNELS 3 Xrotation Yrotation Zrotation
				JOINT mixamorig:RightToeBase
				{
					OFFSET -0.753601 -20.807106 25.115000
					CHANNELS 3 Xrotation Yrotation Zrotation
					JOINT mixamorig:RightToe_End
					{
						OFFSET 0.000299 0.001700 19.918200
						CHANNELS 3 Xrotation Yrotation Zrotation
						End Site
						{
							OFFSET 0.000000 19.918203 0.000000
						}
					}
				}
			}
		}
	}
}
MOTION
Frames: 5
Frame Time: 0.033333
-0.764513 149.709442 8.397095 47.315026 7.431726 -3.659699 -2.703223 -0.128320 0.523709 -5.406973 -0.342852 0.506052 -5.406990 -0.342853 0.506052 0.082908 1.251987 -3.618695 -11.238400 -8.186713 -1.084808 -0.000001 0.000000 -0.000000 -0.000001 0.000000 -0.000000 -0.000001 0.000000 -0.000000 9.654900 -21.966525 21.386606 -52.316599 -35.255148 -29.786694 2.178106 -39.943459 5.637632 16.951592 4.703492 82.762891 -1.607296 -1.437551 -44.852838 -8.864463 -8.229501 -108.221649 0.000001 0.000003 0.000000 0.000001 0.000001 -0.000002 -22.329900 -10.232726 -0.665749 -13.008795 33.638815 5.466830 -0.000006 -0.000001 -0.000014 -0.000001 -0.000001 0.000001 -3.249117 -3.487668 -45.487701 -11.741052 -5.662321 -117.786312 -0.000004 -0.000001 -0.000002 -0.000000 0.000000 -0.000000 1.621473 4.447404 -42.845244 -1.055323 -8.990351 -99.406320 -0.000003 0.000007 0.000005 -0.000001 -0.000000 -0.000001 2.581073 6.861450 -50.366375 0.502857 -8.788563 -83.370286 -0.000001 -0.000007 -0.000005 0.000000 0.000001 0.000006 3.471295 10.192043 -17.151612 -60.484262 28.912624 47.085132 19.363953 43.992343 -22.890522 30.004878 -22.328623 -65.535228 -2.051679 0.230813 37.937121 -6.364938 7.372387 96.576894 0.000005 -0.000002 -0.000001 0.000002 -0.000000 0.000002 -31.480567 10.386535 -14.209263 -13.008683 -33.638849 -5.466807 0.000004 0.000014 0.000011 0.000001 -0.000001 -0.000002 -3.485987 1.851580 32.874431 -8.875918 5.007766 106.188166 -0.000004 -0.000007 0.000000 -0.000000 -0.000001 -0.000001 2.774042 -3.553488 41.587055 -1.339017 10.439960 83.973126 0.000001 -0.000005 0.000004 -0.000000 0.000001 0.000003 4.714845 -4.516881 49.238800 -1.408695 11.737782 71.641977 0.000004 0.000008 -0.000002 -0.000002 -0.000001 0.000003 -59.316771 -6.013380 7.507744 89.153455 15.634646 0.532696 24.206428 -0.986107 -7.971610 3.598932 1.826206 -1.919617 0.000001 -0.000004 -0.000000 -51.239581 -8.850756 2.336153 73.681629 -13.962982 -0.680938 -20.439768 -0.571186 1.050745 -45.088975 -6.217776 7.591223 -0.000000 -0.000000 0.000000 
-0.751695 151.332504 11.501511 47.708383 6.878491 -3.814305 -2.688898 -0.051994 0.654017 -5.378345 -0.270038 0.488317 -5.378314 -0.270036 0.488317 0.284488 1.578198 -4.230668 -11.860251 -8.370416 -0.661709 -0.000002 0.000000 0.000000 -0.000002 0.000000 0.000000 -0.000002 0.000000 0.000000 9.576638 -21.697486 21.219443 -52.453360 -35.518947 -29.850952 2.473402 -39.729093 5.664840 17.004576 4.754976 83.274158 -1.607303 -1.437561 -44.852835 -8.864465 -8.229499 -108.221670 -0.000002 0.000002 -0.000005 0.000001 0.000002 -0.000002 -22.329912 -10.232741 -0.665751 -13.008787 33.638808 5.466833 -0.000005 -0.000000 -0.000011 -0.000004 0.000001 0.000001 -3.249111 -3.487675 -45.487694 -11.741042 -5.662346 -117.786339 -0.000004 -0.000002 -0.000003 -0.000000 -0.000001 -0.000001 1.621471 4.447392 -42.845220 -1.055310 -8.990359 -99.406314 -0.000001 0.000006 0.000005 -0.000000 0.000001 -0.000002 2.581073 6.861438 -50.366375 0.502822 -8.788576 -83.370307 -0.000001 -0.000008 -0.000001 0.000000 -0.000000 -0.000001 3.581835 10.470638 -17.400078 -60.261912 28.705782 47.016034 19.164990 44.026337 -22.742150 29.461212 -22.288640 -66.378934 -2.051669 0.230804 37.937118 -6.364944 7.372382 96.576880 0.000002 -0.000001 -0.000001 0.000000 -0.000000 0.000001 -31.480567 10.386535 -14.209287 -13.008695 -33.638849 -5.466824 0.000003 0.000012 0.000009 -0.000001 -0.000002 -0.000002 -3.485991 1.851587 32.874414 -8.875892 5.007755 106.188166 -0.000005 -0.000006 0.000000 -0.000000 -0.000001 0.000000 2.774036 -3.553490 41.587045 -1.339017 10.439960 83.973146 0.000002 -0.000003 0.000002 0.000001 -0.000001 -0.000001 4.714838 -4.516883 49.238789 -1.408700 11.737798 71.641950 0.000004 0.000009 -0.000011 -0.000001 -0.000001 -0.000003 -66.875885 -6.610048 7.759557 95.631528 13.044849 0.471903 16.857501 -0.517114 -8.417872 2.439398 1.636670 -1.740088 -0.000001 -0.000000 -0.000000 -49.051731 -9.147947 2.756831 69.854872 -13.012540 -0.922574 -19.287691 -0.504253 0.512743 -45.024163 -6.263968 7.427968 -0.000000 0.000000 0.000000 
-0.586636 152.695007 14.228119 48.212673 6.442573 -3.838571 -2.693727 0.029576 0.732978 -5.387372 -0.200569 0.450514 -5.387366 -0.200569 0.450513 0.450813 1.951791 -4.821443 -12.486046 -8.494518 -0.271745 -0.000004 0.000000 -0.000000 -0.000004 0.000000 -0.000000 -0.000004 0.000000 -0.000000 9.549735 -21.558046 21.162463 -52.685019 -35.723976 -29.807799 2.537727 -39.397153 5.664558 17.139926 4.700703 83.606064 -1.607295 -1.437547 -44.852828 -8.864455 -8.229483 -108.221629 -0.000000 0.000002 0.000001 -0.000002 -0.000001 -0.000001 -22.329910 -10.232715 -0.665739 -13.008787 33.638815 5.466833 -0.000004 -0.000004 -0.000016 -0.000001 -0.000000 -0.000000 -3.249106 -3.487669 -45.487684 -11.741058 -5.662324 -117.786298 -0.000003 0.000000 -0.000004 -0.000001 -0.000000 0.000000 1.621488 4.447410 -42.845230 -1.055312 -8.990349 -99.406314 -0.000000 0.000006 -0.000001 -0.000001 -0.000000 -0.000002 2.581079 6.861458 -50.366372 0.502837 -8.788559 -83.370286 -0.000001 -0.000008 -0.000004 -0.000002 -0.000001 0.000002 3.682126 10.679822 -17.709810 -60.157519 28.654734 46.780608 18.687275 43.798342 -22.341383 29.046773 -22.090994 -67.060102 -2.051662 0.230804 37.937108 -6.364934 7.372392 96.576880 0.000004 -0.000002 -0.000004 -0.000001 0.000000 -0.000002 -31.480574 10.386524 -14.209258 -13.008689 -33.638835 -5.466834 0.000002 0.000017 0.000011 -0.000001 0.000003 0.000001 -3.485986 1.851579 32.874442 -8.875901 5.007765 106.188138 -0.000003 -0.000007 -0.000002 0.000002 -0.000001 -0.000002 2.774048 -3.553488 41.587041 -1.339037 10.439978 83.973167 0.000000 -0.000004 0.000003 -0.000000 -0.000001 0.000002 4.714815 -4.516852 49.238789 -1.408698 11.737752 71.641977 0.000002 0.000009 -0.000010 -0.000002 -0.000001 -0.000004 -73.916095 -6.791175 7.870368 100.308602 10.843438 0.254206 11.039712 0.080635 -7.559990 0.527808 1.632771 -1.840608 0.000000 0.000002 -0.000000 -47.440821 -9.471948 2.864939 66.618878 -11.889193 -1.195565 -17.755697 -0.477305 -0.152191 -45.381061 -6.575641 7.372003 -0.000000 -0.000001 0.000000 
-0.292212 153.670990 16.632111 48.767872 6.059381 -3.711136 -2.712073 0.099814 0.751387 -5.423247 -0.140748 0.390727 -5.423260 -0.140750 0.390727 0.588701 2.345919 -5.391117 -13.116699 -8.581584 0.081136 -0.000001 0.000000 0.000000 -0.000001 0.000000 0.000000 -0.000001 0.000000 0.000000 9.540372 -21.534190 21.118258 -52.957018 -35.774178 -29.647580 2.468414 -39.159278 5.728254 17.387993 4.609750 83.620032 -1.607303 -1.437565 -44.852828 -8.864450 -8.229490 -108.221615 -0.000001 0.000003 -0.000003 -0.000003 0.000000 -0.000002 -22.329919 -10.232722 -0.665760 -13.008782 33.638784 5.466828 -0.000002 -0.000004 -0.000013 -0.000002 0.000000 -0.000002 -3.249114 -3.487667 -45.487711 -11.741058 -5.662338 -117.786312 -0.000005 -0.000001 -0.000003 0.000000 -0.000000 -0.000001 1.621491 4.447403 -42.845230 -1.055329 -8.990361 -99.406334 -0.000003 0.000006 0.000001 0.000001 0.000001 0.000001 2.581086 6.861448 -50.366372 0.502836 -8.788569 -83.370266 0.000000 -0.000008 0.000004 -0.000001 -0.000001 -0.000002 3.777934 10.807800 -18.156666 -60.166433 28.694588 46.493361 17.986306 43.443825 -21.810263 28.737942 -21.820366 -67.550564 -2.051666 0.230813 37.937108 -6.364941 7.372388 96.576894 0.000005 -0.000000 -0.000007 0.000003 0.000000 0.000003 -31.480571 10.386524 -14.209283 -13.008685 -33.638852 -5.466819 0.000004 0.000016 0.000011 0.000001 0.000000 -0.000001 -3.485984 1.851580 32.874418 -8.875908 5.007796 106.188186 -0.000003 -0.000007 0.000004 -0.000000 0.000000 0.000003 2.774047 -3.553491 41.587034 -1.339010 10.439958 83.973160 -0.000000 -0.000003 0.000008 -0.000000 -0.000000 0.000004 4.714841 -4.516883 49.238800 -1.408693 11.737782 71.641970 0.000004 0.000008 -0.000008 -0.000001 0.000000 0.000002 -79.398640 -6.265170 8.034305 102.743196 8.340406 0.100274 6.703287 0.551466 -5.723529 -1.683647 1.944372 -2.237328 -0.000001 -0.000002 0.000000 -46.311541 -9.744464 2.753954 64.057236 -10.710596 -1.514829 -16.137415 -0.479672 -0.845684 -46.017276 -7.088876 7.401757 -0.000000 0.000000 -0.000000 
0.075587 154.239014 18.885849 49.299950 5.659208 -3.484900 -2.734372 0.147742 0.726954 -5.467165 -0.094160 0.329514 -5.467173 -0.094160 0.329514 0.719240 2.707750 -5.917578 -13.746071 -8.658160 0.379908 -0.000003 0.000000 0.000000 -0.000003 0.000000 0.000000 -0.000003 0.000000 0.000000 9.509442 -21.523871 21.003901 -53.198725 -35.682810 -29.354459 2.393941 -39.120315 5.864608 17.647126 4.557813 83.347644 -1.607311 -1.437563 -44.852831 -8.864455 -8.229493 -108.221629 0.000003 0.000002 -0.000002 0.000001 0.000001 -0.000001 -22.329929 -10.232733 -0.665748 -13.008788 33.638791 5.466827 0.000000 -0.000005 -0.000015 -0.000002 0.000001 -0.000003 -3.249117 -3.487689 -45.487694 -11.741047 -5.662328 -117.786312 -0.000006 -0.000002 -0.000002 -0.000000 0.000000 -0.000004 1.621456 4.447388 -42.845227 -1.055302 -8.990339 -99.406307 -0.000000 0.000007 -0.000001 -0.000001 -0.000001 -0.000003 2.581061 6.861433 -50.366365 0.502853 -8.788550 -83.370286 -0.000001 -0.000008 0.000001 -0.000001 -0.000000 0.000000 3.878182 10.879814 -18.756400 -60.282491 28.771561 46.262780 17.142142 43.072761 -21.260605 28.525262 -21.542420 -67.865791 -2.051654 0.230801 37.937114 -6.364936 7.372386 96.576901 0.000004 -0.000002 -0.000004 0.000001 0.000000 0.000002 -31.480574 10.386530 -14.209276 -13.008674 -33.638835 -5.466805 0.000008 0.000016 0.000012 0.000004 0.000002 -0.000000 -3.485973 1.851563 32.874414 -8.875892 5.007775 106.188159 -0.000004 -0.000005 -0.000006 0.000001 -0.000000 -0.000005 2.774060 -3.553507 41.587045 -1.339004 10.439958 83.973132 -0.000001 -0.000005 0.000006 0.000000 -0.000000 0.000002 4.714831 -4.516883 49.238793 -1.408714 11.737780 71.641984 0.000004 0.000009 -0.000008 -0.000000 0.000001 0.000001 -83.066063 -5.201152 8.422721 103.367229 5.337335 0.047423 3.352398 0.802790 -3.957520 -4.413769 2.579814 -2.518829 -0.000000 -0.000002 -0.000000 -45.475628 -9.970049 2.552430 62.108160 -9.406029 -1.894948 -14.455144 -0.497577 -1.553277 -46.908957 -7.842166 7.416077 0.000001 -0.000001 0.000000 
